<svg xmlns="http://www.w3.org/2000/svg" width="32" height="32" viewBox="0 0 32 32">
  <!-- MC Diamond Sword pixel art cursor -->
  <!-- Blade (diamond cyan) -->
  <rect x="26" y="0" width="2" height="2" fill="#33ebd1"/>
  <rect x="24" y="2" width="2" height="2" fill="#33ebd1"/>
  <rect x="28" y="2" width="2" height="2" fill="#1db8a0"/>
  <rect x="22" y="4" width="2" height="2" fill="#33ebd1"/>
  <rect x="24" y="4" width="2" height="2" fill="#5cf5e0"/>
  <rect x="26" y="4" width="2" height="2" fill="#1db8a0"/>
  <rect x="20" y="6" width="2" height="2" fill="#33ebd1"/>
  <rect x="22" y="6" width="2" height="2" fill="#5cf5e0"/>
  <rect x="24" y="6" width="2" height="2" fill="#1db8a0"/>
  <rect x="18" y="8" width="2" height="2" fill="#33ebd1"/>
  <rect x="20" y="8" width="2" height="2" fill="#5cf5e0"/>
  <rect x="22" y="8" width="2" height="2" fill="#1db8a0"/>
  <rect x="16" y="10" width="2" height="2" fill="#33ebd1"/>
  <rect x="18" y="10" width="2" height="2" fill="#5cf5e0"/>
  <rect x="20" y="10" width="2" height="2" fill="#1db8a0"/>
  <rect x="14" y="12" width="2" height="2" fill="#33ebd1"/>
  <rect x="16" y="12" width="2" height="2" fill="#5cf5e0"/>
  <rect x="18" y="12" width="2" height="2" fill="#1db8a0"/>
  <!-- Guard (brown/gold) -->
  <rect x="10" y="14" width="2" height="2" fill="#8B6914"/>
  <rect x="12" y="14" width="2" height="2" fill="#C89B3C"/>
  <rect x="14" y="14" width="2" height="2" fill="#8B6914"/>
  <rect x="16" y="14" width="2" height="2" fill="#8B6914"/>
  <!-- Handle (dark brown) -->
  <rect x="8" y="16" width="2" height="2" fill="#6B4226"/>
  <rect x="10" y="16" width="2" height="2" fill="#8B5A2B"/>
  <rect x="12" y="16" width="2" height="2" fill="#6B4226"/>
  <rect x="6" y="18" width="2" height="2" fill="#6B4226"/>
  <rect x="8" y="18" width="2" height="2" fill="#8B5A2B"/>
  <rect x="10" y="18" width="2" height="2" fill="#6B4226"/>
  <!-- Pommel -->
  <rect x="4" y="20" width="2" height="2" fill="#6B4226"/>
  <rect x="6" y="20" width="2" height="2" fill="#8B5A2B"/>
  <rect x="4" y="22" width="2" height="2" fill="#4a2e14"/>
</svg>
